<svg width="160" height="40" viewBox="0 0 160 40" fill="none" xmlns="http://www.w3.org/2000/svg">
  <rect width="40" height="40" rx="8" fill="#0EA5E9"/>
  <path d="M11 10H29V14H11V10Z" fill="white"/>
  <path d="M11 17H23V21H11V17Z" fill="white"/>
  <path d="M11 24H19V28H11V24Z" fill="white"/>
  <circle cx="29" cy="26" r="5" fill="#A855F7"/>
  
  <path d="M53.768 28V11.8H56.872V25.328H64.184V28H53.768ZM69.4707 28.192C68.1827 28.192 67.0387 27.92 66.0387 27.376C65.0387 26.832 64.2547 26.072 63.6867 25.096C63.1187 24.12 62.8347 23 62.8347 21.736C62.8347 20.472 63.1187 19.352 63.6867 18.376C64.2547 17.4 65.0387 16.64 66.0387 16.096C67.0387 15.552 68.1827 15.28 69.4707 15.28C70.7587 15.28 71.9027 15.552 72.9027 16.096C73.9027 16.64 74.6867 17.4 75.2547 18.376C75.8227 19.352 76.1067 20.472 76.1067 21.736C76.1067 23 75.8227 24.12 75.2547 25.096C74.6867 26.072 73.9027 26.832 72.9027 27.376C71.9027 27.92 70.7587 28.192 69.4707 28.192ZM69.4707 25.76C70.4707 25.76 71.2707 25.424 71.8707 24.752C72.4707 24.08 72.7707 23.08 72.7707 21.752C72.7707 20.408 72.4707 19.4 71.8707 18.728C71.2707 18.056 70.4707 17.72 69.4707 17.72C68.4707 17.72 67.6707 18.056 67.0707 18.728C66.4707 19.4 66.1707 20.408 66.1707 21.752C66.1707 23.08 66.4707 24.08 67.0707 24.752C67.6707 25.424 68.4707 25.76 69.4707 25.76ZM82.4268 28.192C81.4268 28.192 80.5068 28.032 79.6668 27.712C78.8268 27.376 78.1388 26.936 77.6028 26.392L78.7388 24.32C79.2428 24.8 79.8108 25.168 80.4428 25.424C81.0748 25.68 81.7468 25.808 82.4588 25.808C83.1708 25.808 83.7068 25.688 84.0668 25.448C84.4268 25.192 84.6068 24.856 84.6068 24.44C84.6068 24.088 84.4828 23.808 84.2348 23.6C83.9868 23.392 83.6508 23.224 83.2268 23.096C82.8028 22.968 82.3068 22.832 81.7388 22.688C80.9228 22.48 80.2428 22.272 79.6988 22.064C79.1548 21.856 78.6908 21.52 78.3068 21.056C77.9228 20.592 77.7308 19.96 77.7308 19.16C77.7308 18.44 77.9228 17.8 78.3068 17.24C78.7068 16.664 79.2668 16.216 79.9868 15.896C80.7228 15.56 81.5948 15.392 82.6028 15.392C83.3948 15.392 84.1708 15.504 84.9308 15.728C85.6908 15.952 86.3468 16.288 86.8988 16.736L85.8588 18.808C85.3388 18.424 84.8188 18.144 84.2988 17.968C83.7788 17.776 83.2428 17.68 82.6908 17.68C81.9788 17.68 81.4508 17.808 81.1068 18.064C80.7788 18.32 80.6148 18.664 80.6148 19.096C80.6148 19.448 80.7388 19.728 80.9868 19.936C81.2348 20.128 81.5628 20.288 81.9708 20.416C82.3948 20.528 82.8908 20.656 83.4588 20.8C84.2588 21.008 84.9308 21.224 85.4748 21.448C86.0188 21.656 86.4828 21.992 86.8668 22.456C87.2508 22.904 87.4428 23.52 87.4428 24.304C87.4428 25.008 87.2428 25.648 86.8428 26.224C86.4588 26.784 85.9068 27.224 85.1868 27.544C84.4668 27.976 83.5468 28.192 82.4268 28.192ZM94.2652 28.192C92.9772 28.192 91.8332 27.92 90.8332 27.376C89.8332 26.832 89.0492 26.072 88.4812 25.096C87.9132 24.12 87.6292 23 87.6292 21.736C87.6292 20.472 87.9132 19.352 88.4812 18.376C89.0492 17.4 89.8332 16.64 90.8332 16.096C91.8332 15.552 92.9772 15.28 94.2652 15.28C95.5532 15.28 96.6972 15.552 97.6972 16.096C98.6972 16.64 99.4812 17.4 100.049 18.376C100.617 19.352 100.901 20.472 100.901 21.736C100.901 23 100.617 24.12 100.049 25.096C99.4812 26.072 98.6972 26.832 97.6972 27.376C96.6972 27.92 95.5532 28.192 94.2652 28.192ZM94.2652 25.76C95.2652 25.76 96.0652 25.424 96.6652 24.752C97.2652 24.08 97.5652 23.08 97.5652 21.752C97.5652 20.408 97.2652 19.4 96.6652 18.728C96.0652 18.056 95.2652 17.72 94.2652 17.72C93.2652 17.72 92.4652 18.056 91.8652 18.728C91.2652 19.4 90.9652 20.408 90.9652 21.752C90.9652 23.08 91.2652 24.08 91.8652 24.752C92.4652 25.424 93.2652 25.76 94.2652 25.76ZM107.757 28V17.888H103.453V15.472H115.165V17.888H110.861V28H107.757ZM121.386 28.192C120.194 28.192 119.122 27.92 118.17 27.376C117.234 26.832 116.49 26.072 115.938 25.096C115.386 24.12 115.11 23 115.11 21.736C115.11 20.472 115.386 19.352 115.938 18.376C116.49 17.4 117.242 16.64 118.194 16.096C119.146 15.552 120.226 15.28 121.434 15.28C122.442 15.28 123.322 15.464 124.074 15.832C124.842 16.184 125.466 16.696 125.946 17.368C126.426 18.024 126.698 18.8 126.762 19.696H123.69C123.578 19.12 123.33 18.664 122.946 18.328C122.578 17.992 122.09 17.824 121.482 17.824C120.554 17.824 119.858 18.168 119.394 18.856C118.93 19.528 118.698 20.504 118.698 21.784C118.698 23.048 118.93 24.016 119.394 24.688C119.858 25.36 120.546 25.696 121.458 25.696C122.066 25.696 122.562 25.536 122.946 25.216C123.346 24.88 123.602 24.424 123.714 23.848H126.786C126.706 24.728 126.426 25.496 125.946 26.152C125.482 26.808 124.866 27.32 124.098 27.688C123.346 28.024 122.442 28.192 121.386 28.192ZM134.388 28.192C133.1 28.192 131.956 27.92 130.956 27.376C129.956 26.832 129.172 26.072 128.604 25.096C128.036 24.12 127.752 23 127.752 21.736C127.752 20.472 128.036 19.352 128.604 18.376C129.172 17.4 129.956 16.64 130.956 16.096C131.956 15.552 133.1 15.28 134.388 15.28C135.676 15.28 136.82 15.552 137.82 16.096C138.82 16.64 139.604 17.4 140.172 18.376C140.74 19.352 141.024 20.472 141.024 21.736C141.024 23 140.74 24.12 140.172 25.096C139.604 26.072 138.82 26.832 137.82 27.376C136.82 27.92 135.676 28.192 134.388 28.192ZM134.388 25.76C135.388 25.76 136.188 25.424 136.788 24.752C137.388 24.08 137.688 23.08 137.688 21.752C137.688 20.408 137.388 19.4 136.788 18.728C136.188 18.056 135.388 17.72 134.388 17.72C133.388 17.72 132.588 18.056 131.988 18.728C131.388 19.4 131.088 20.408 131.088 21.752C131.088 23.08 131.388 24.08 131.988 24.752C132.588 25.424 133.388 25.76 134.388 25.76Z" fill="#0B2238"/>
  
  <rect x="144" y="15" width="4" height="14" rx="1" fill="#0EA5E9"/>
</svg>